<mxfile host="Electron" agent="Mozilla/5.0 (Macintosh; Intel Mac OS X 10_15_7) AppleWebKit/537.36 (KHTML, like Gecko) draw.io/24.7.8 Chrome/128.0.6613.36 Electron/32.0.1 Safari/537.36" version="24.7.8">
  <diagram name="Page-1" id="ovlguLEX5YVeKg5nlHSj">
    <mxGraphModel dx="710" dy="515" grid="1" gridSize="10" guides="1" tooltips="1" connect="1" arrows="1" fold="1" page="1" pageScale="1" pageWidth="1169" pageHeight="827" math="0" shadow="0">
      <root>
        <mxCell id="0" />
        <mxCell id="1" parent="0" />
        <mxCell id="2Rta618J-kTLWQuW5dWK-1" value="Судья" style="whiteSpace=wrap;html=1;align=center;" vertex="1" parent="1">
          <mxGeometry x="740" y="330" width="100" height="40" as="geometry" />
        </mxCell>
        <mxCell id="2Rta618J-kTLWQuW5dWK-4" style="edgeStyle=orthogonalEdgeStyle;rounded=0;orthogonalLoop=1;jettySize=auto;html=1;entryX=0.5;entryY=0;entryDx=0;entryDy=0;endArrow=none;endFill=0;" edge="1" parent="1" source="2Rta618J-kTLWQuW5dWK-2" target="2Rta618J-kTLWQuW5dWK-3">
          <mxGeometry relative="1" as="geometry" />
        </mxCell>
        <mxCell id="2Rta618J-kTLWQuW5dWK-6" value="Гостевая команда" style="edgeLabel;html=1;align=center;verticalAlign=middle;resizable=0;points=[];" vertex="1" connectable="0" parent="2Rta618J-kTLWQuW5dWK-4">
          <mxGeometry x="0.5065" relative="1" as="geometry">
            <mxPoint x="13" y="-10" as="offset" />
          </mxGeometry>
        </mxCell>
        <mxCell id="2Rta618J-kTLWQuW5dWK-10" value="1" style="edgeLabel;html=1;align=center;verticalAlign=middle;resizable=0;points=[];" vertex="1" connectable="0" parent="2Rta618J-kTLWQuW5dWK-4">
          <mxGeometry x="0.91" y="-1" relative="1" as="geometry">
            <mxPoint x="-9" as="offset" />
          </mxGeometry>
        </mxCell>
        <mxCell id="2Rta618J-kTLWQuW5dWK-5" style="edgeStyle=orthogonalEdgeStyle;rounded=0;orthogonalLoop=1;jettySize=auto;html=1;entryX=0.5;entryY=1;entryDx=0;entryDy=0;endArrow=none;endFill=0;" edge="1" parent="1" source="2Rta618J-kTLWQuW5dWK-2" target="2Rta618J-kTLWQuW5dWK-3">
          <mxGeometry relative="1" as="geometry" />
        </mxCell>
        <mxCell id="2Rta618J-kTLWQuW5dWK-7" value="Принимающая команда" style="edgeLabel;html=1;align=center;verticalAlign=middle;resizable=0;points=[];" vertex="1" connectable="0" parent="2Rta618J-kTLWQuW5dWK-5">
          <mxGeometry x="0.3178" relative="1" as="geometry">
            <mxPoint y="10" as="offset" />
          </mxGeometry>
        </mxCell>
        <mxCell id="2Rta618J-kTLWQuW5dWK-9" value="1" style="edgeLabel;html=1;align=center;verticalAlign=middle;resizable=0;points=[];" vertex="1" connectable="0" parent="2Rta618J-kTLWQuW5dWK-5">
          <mxGeometry x="0.9202" relative="1" as="geometry">
            <mxPoint x="-10" as="offset" />
          </mxGeometry>
        </mxCell>
        <mxCell id="2Rta618J-kTLWQuW5dWK-8" style="edgeStyle=orthogonalEdgeStyle;rounded=0;orthogonalLoop=1;jettySize=auto;html=1;entryX=0;entryY=0.5;entryDx=0;entryDy=0;endArrow=none;endFill=0;" edge="1" parent="1" source="2Rta618J-kTLWQuW5dWK-2" target="2Rta618J-kTLWQuW5dWK-1">
          <mxGeometry relative="1" as="geometry" />
        </mxCell>
        <mxCell id="2Rta618J-kTLWQuW5dWK-11" value="1" style="edgeLabel;html=1;align=center;verticalAlign=middle;resizable=0;points=[];" vertex="1" connectable="0" parent="2Rta618J-kTLWQuW5dWK-8">
          <mxGeometry x="0.5356" y="1" relative="1" as="geometry">
            <mxPoint y="-9" as="offset" />
          </mxGeometry>
        </mxCell>
        <mxCell id="2Rta618J-kTLWQuW5dWK-2" value="Участвуют в&lt;div&gt;матче&lt;/div&gt;" style="shape=rhombus;perimeter=rhombusPerimeter;whiteSpace=wrap;html=1;align=center;" vertex="1" parent="1">
          <mxGeometry x="570" y="320" width="120" height="60" as="geometry" />
        </mxCell>
        <mxCell id="2Rta618J-kTLWQuW5dWK-3" value="Команда" style="whiteSpace=wrap;html=1;align=center;" vertex="1" parent="1">
          <mxGeometry x="380" y="330" width="100" height="40" as="geometry" />
        </mxCell>
      </root>
    </mxGraphModel>
  </diagram>
</mxfile>
